<?xml version="1.0" encoding="UTF-8" standalone="no"?>
<!DOCTYPE svg PUBLIC "-//W3C//DTD SVG 1.1//EN"
 "http://www.w3.org/Graphics/SVG/1.1/DTD/svg11.dtd">
<!-- Generated by graphviz version 2.40.1 (20161225.0304)
 -->
<!-- Title: flowchart Pages: 1 -->
<svg width="1036pt" height="292pt"
 viewBox="0.00 0.00 1036.00 292.00" xmlns="http://www.w3.org/2000/svg" xmlns:xlink="http://www.w3.org/1999/xlink">
<g id="graph0" class="graph" transform="scale(1 1) rotate(0) translate(4 288)">
<title>flowchart</title>
<polygon fill="#ffffff" stroke="transparent" points="-4,4 -4,-288 1032,-288 1032,4 -4,4"/>
<!-- A -->
<g id="node1" class="node">
<title>A</title>
<path fill="none" stroke="#000000" d="M841,-283.9005C841,-283.9005 534,-283.9005 534,-283.9005 528,-283.9005 522,-277.9005 522,-271.9005 522,-271.9005 522,-259.2995 522,-259.2995 522,-253.2995 528,-247.2995 534,-247.2995 534,-247.2995 841,-247.2995 841,-247.2995 847,-247.2995 853,-253.2995 853,-259.2995 853,-259.2995 853,-271.9005 853,-271.9005 853,-277.9005 847,-283.9005 841,-283.9005"/>
<text text-anchor="middle" x="687.5" y="-269.2" font-family="Helvetica,sans-Serif" font-size="12.00" fill="#000000">Matched respondents present in both 2019 and 2021</text>
<text text-anchor="middle" x="687.5" y="-254.8" font-family="Helvetica,sans-Serif" font-size="12.00" fill="#000000">N = 13200</text>
</g>
<!-- B -->
<g id="node2" class="node">
<title>B</title>
<path fill="none" stroke="#000000" d="M667,-211.1005C667,-211.1005 360,-211.1005 360,-211.1005 354,-211.1005 348,-205.1005 348,-199.1005 348,-199.1005 348,-186.4995 348,-186.4995 348,-180.4995 354,-174.4995 360,-174.4995 360,-174.4995 667,-174.4995 667,-174.4995 673,-174.4995 679,-180.4995 679,-186.4995 679,-186.4995 679,-199.1005 679,-199.1005 679,-205.1005 673,-211.1005 667,-211.1005"/>
<text text-anchor="middle" x="513.5" y="-196.4" font-family="Helvetica,sans-Serif" font-size="12.00" fill="#000000">Age&#45;eligible cohort (≤65 years)</text>
<text text-anchor="middle" x="513.5" y="-182" font-family="Helvetica,sans-Serif" font-size="12.00" fill="#000000">N = 10216</text>
</g>
<!-- A&#45;&gt;B -->
<g id="edge1" class="edge">
<title>A&#45;&gt;B</title>
<path fill="none" stroke="#000000" d="M643.5925,-247.2295C620.3064,-237.4868 591.5102,-225.4387 566.9344,-215.1565"/>
<polygon fill="#000000" stroke="#000000" points="567.9695,-211.7956 557.3935,-211.1646 565.2677,-218.2532 567.9695,-211.7956"/>
</g>
<!-- E -->
<g id="node5" class="node">
<title>E</title>
<path fill="none" stroke="#000000" stroke-dasharray="5,2" d="M1016,-211.1005C1016,-211.1005 709,-211.1005 709,-211.1005 703,-211.1005 697,-205.1005 697,-199.1005 697,-199.1005 697,-186.4995 697,-186.4995 697,-180.4995 703,-174.4995 709,-174.4995 709,-174.4995 1016,-174.4995 1016,-174.4995 1022,-174.4995 1028,-180.4995 1028,-186.4995 1028,-186.4995 1028,-199.1005 1028,-199.1005 1028,-205.1005 1022,-211.1005 1016,-211.1005"/>
<text text-anchor="middle" x="862.5" y="-196.4" font-family="Helvetica,sans-Serif" font-size="12.00" fill="#000000">Excluded age &gt;65</text>
<text text-anchor="middle" x="862.5" y="-182" font-family="Helvetica,sans-Serif" font-size="12.00" fill="#000000">N = 2984</text>
</g>
<!-- A&#45;&gt;E -->
<g id="edge2" class="edge">
<title>A&#45;&gt;E</title>
<path fill="none" stroke="#000000" d="M731.6599,-247.2295C755.1834,-237.4437 784.2979,-225.3321 809.0863,-215.0201"/>
<polygon fill="#000000" stroke="#000000" points="810.4656,-218.2371 818.3542,-211.1646 807.7769,-211.7741 810.4656,-218.2371"/>
</g>
<!-- C -->
<g id="node3" class="node">
<title>C</title>
<path fill="none" stroke="#000000" d="M493,-138.5004C493,-138.5004 186,-138.5004 186,-138.5004 180,-138.5004 174,-132.5004 174,-126.5004 174,-126.5004 174,-99.0996 174,-99.0996 174,-93.0996 180,-87.0996 186,-87.0996 186,-87.0996 493,-87.0996 493,-87.0996 499,-87.0996 505,-93.0996 505,-99.0996 505,-99.0996 505,-126.5004 505,-126.5004 505,-132.5004 499,-138.5004 493,-138.5004"/>
<text text-anchor="middle" x="339.5" y="-123.6" font-family="Helvetica,sans-Serif" font-size="12.00" fill="#000000">Table 1 analytic cohort</text>
<text text-anchor="middle" x="339.5" y="-109.2" font-family="Helvetica,sans-Serif" font-size="12.00" fill="#000000">ADHD diagnosis</text>
<text text-anchor="middle" x="339.5" y="-94.8" font-family="Helvetica,sans-Serif" font-size="12.00" fill="#000000">N = 395</text>
</g>
<!-- B&#45;&gt;C -->
<g id="edge3" class="edge">
<title>B&#45;&gt;C</title>
<path fill="none" stroke="#000000" d="M473.5809,-174.4464C453.1199,-165.039 427.6872,-153.3458 404.4891,-142.6801"/>
<polygon fill="#000000" stroke="#000000" points="405.9338,-139.4921 395.386,-138.4947 403.0096,-145.8521 405.9338,-139.4921"/>
</g>
<!-- F -->
<g id="node6" class="node">
<title>F</title>
<path fill="none" stroke="#000000" stroke-dasharray="5,2" d="M842,-131.1005C842,-131.1005 535,-131.1005 535,-131.1005 529,-131.1005 523,-125.1005 523,-119.1005 523,-119.1005 523,-106.4995 523,-106.4995 523,-100.4995 529,-94.4995 535,-94.4995 535,-94.4995 842,-94.4995 842,-94.4995 848,-94.4995 854,-100.4995 854,-106.4995 854,-106.4995 854,-119.1005 854,-119.1005 854,-125.1005 848,-131.1005 842,-131.1005"/>
<text text-anchor="middle" x="688.5" y="-116.4" font-family="Helvetica,sans-Serif" font-size="12.00" fill="#000000">Excluded: no ADHD diagnosis</text>
<text text-anchor="middle" x="688.5" y="-102" font-family="Helvetica,sans-Serif" font-size="12.00" fill="#000000">N = 9821</text>
</g>
<!-- B&#45;&gt;F -->
<g id="edge4" class="edge">
<title>B&#45;&gt;F</title>
<path fill="none" stroke="#000000" d="M553.6485,-174.4464C579.0136,-162.8509 611.9758,-147.7825 638.9618,-135.446"/>
<polygon fill="#000000" stroke="#000000" points="640.5961,-138.5474 648.2356,-131.2066 637.6857,-132.1811 640.5961,-138.5474"/>
</g>
<!-- D -->
<g id="node4" class="node">
<title>D</title>
<path fill="none" stroke="#000000" d="M319,-51.3004C319,-51.3004 12,-51.3004 12,-51.3004 6,-51.3004 0,-45.3004 0,-39.3004 0,-39.3004 0,-11.8996 0,-11.8996 0,-5.8996 6,.1004 12,.1004 12,.1004 319,.1004 319,.1004 325,.1004 331,-5.8996 331,-11.8996 331,-11.8996 331,-39.3004 331,-39.3004 331,-45.3004 325,-51.3004 319,-51.3004"/>
<text text-anchor="middle" x="165.5" y="-36.4" font-family="Helvetica,sans-Serif" font-size="12.00" fill="#000000">Table 2 analytic cohort</text>
<text text-anchor="middle" x="165.5" y="-22" font-family="Helvetica,sans-Serif" font-size="12.00" fill="#000000">ADHD diagnosis + medication fills</text>
<text text-anchor="middle" x="165.5" y="-7.6" font-family="Helvetica,sans-Serif" font-size="12.00" fill="#000000">N = 146</text>
</g>
<!-- C&#45;&gt;D -->
<g id="edge5" class="edge">
<title>C&#45;&gt;D</title>
<path fill="none" stroke="#000000" d="M288.2354,-87.1088C268.6757,-77.3065 246.1994,-66.0424 225.8699,-55.8544"/>
<polygon fill="#000000" stroke="#000000" points="227.2069,-52.6095 216.6986,-51.2582 224.0707,-58.8676 227.2069,-52.6095"/>
</g>
<!-- G -->
<g id="node7" class="node">
<title>G</title>
<path fill="none" stroke="#000000" stroke-dasharray="5,2" d="M668,-43.9005C668,-43.9005 361,-43.9005 361,-43.9005 355,-43.9005 349,-37.9005 349,-31.9005 349,-31.9005 349,-19.2995 349,-19.2995 349,-13.2995 355,-7.2995 361,-7.2995 361,-7.2995 668,-7.2995 668,-7.2995 674,-7.2995 680,-13.2995 680,-19.2995 680,-19.2995 680,-31.9005 680,-31.9005 680,-37.9005 674,-43.9005 668,-43.9005"/>
<text text-anchor="middle" x="514.5" y="-29.2" font-family="Helvetica,sans-Serif" font-size="12.00" fill="#000000">Excluded: no linked ADHD medication fills</text>
<text text-anchor="middle" x="514.5" y="-14.8" font-family="Helvetica,sans-Serif" font-size="12.00" fill="#000000">N = 249</text>
</g>
<!-- C&#45;&gt;G -->
<g id="edge6" class="edge">
<title>C&#45;&gt;G</title>
<path fill="none" stroke="#000000" d="M391.0593,-87.1088C415.6251,-74.868 444.7655,-60.3477 468.563,-48.4897"/>
<polygon fill="#000000" stroke="#000000" points="470.3448,-51.5124 477.7343,-43.9198 467.2229,-45.2471 470.3448,-51.5124"/>
</g>
</g>
</svg>

